<?xml version='1.0' encoding='ASCII'?>
<svg xmlns="http://www.w3.org/2000/svg" width="6338" height="1011" preserveAspectRatio="xMinYMin slice" viewBox="-100 -250 6338 1011" version="1.1">
  <path d="M64,155 q27,66 35,117.5 q8,51.5 2.5,96.5 q-5.5,45 -21,90.5 q-15.5,45.5 -35.5,100.5 l-45,-91 q19,-42 36,-85 q17,-43 26,-97.5 q9,-54.5 2,-131.5 Z M50.5,0 q16.5,0 28,12 q11.5,12 11.5,28.5 q0,16.5 -11.5,28 q-11.5,11.5 -28,11.5 q-16.5,0 -28.5,-11.5 q-12,-11.5 -12,-28 q0,-16.5 12,-28.5 q12,-12 28.5,-12 Z" fill="#000000" transform="matrix(1,0,0,-1,-50,411)"/>
  <path d="M230,531 q-44,29 -92,29 q-38,0 -69.5,-18 q-31.5,-18 -50,-49 q-18.5,-31 -18.5,-69 q0,-30 15,-60.5 q15,-30.5 53,-51.5 q39,-20 61.5,-40 q22.5,-20 30.5,-47 q8,-27 3,-69 q30,56 30,96.5 q0,40.5 -25.5,70.5 q-25.5,30 -72.5,53 q-63,30 -63,68 q0,17 14,27 q14,10 34,14.5 q20,4.5 36,4.5 q26,0 54,-8.5 q28,-8.5 60,-28.5 v78 Z M153.5,0 q16.5,0 28,12 q11.5,12 11.5,28.5 q0,16.5 -11.5,28 q-11.5,11.5 -28,11.5 q-16.5,0 -28.5,-11.5 q-12,-11.5 -12,-28 q0,-16.5 12,-28.5 q12,-12 28.5,-12 Z" fill="#000000" transform="matrix(1,0,0,-1,94,411)"/>
  <path d="M40.5,0 q16.5,0 28,12 q11.5,12 11.5,28.5 q0,16.5 -11.5,28 q-11.5,11.5 -28,11.5 q-16.5,0 -28.5,-11.5 q-12,-11.5 -12,-28 q0,-16.5 12,-28.5 q12,-12 28.5,-12 Z M40.5,180 q16.5,0 28,12 q11.5,12 11.5,28.5 q0,16.5 -11.5,28 q-11.5,11.5 -28,11.5 q-16.5,0 -28.5,-11.5 q-12,-11.5 -12,-28 q0,-16.5 12,-28.5 q12,-12 28.5,-12 Z" fill="#000000" transform="matrix(1,0,0,-1,364,411)"/>
  <path d="M47,-82 q12,0 20.5,8.5 q8.5,8.5 8.5,20.5 q0,12 -8.5,20.5 q-8.5,8.5 -20.5,8.5 q-12,0 -20.5,-8.5 q-8.5,-8.5 -8.5,-20.5 q0,-12 8.5,-20.5 q8.5,-8.5 20.5,-8.5 Z M69,185 q-49,-26 -59.5,-75 q-10.5,-49 35.5,-110 l43,58 q-12,11 -22,33 q-10,22 -11,47.5 q-1,25.5 14,46.5 Z" fill="#000000" transform="matrix(1,0,0,-1,484,411)"/>
  <path d="M69,185 q-49,-26 -59.5,-75 q-10.5,-49 35.5,-110 l43,58 q-12,11 -22,33 q-10,22 -11,47.5 q-1,25.5 14,46.5 Z" fill="#000000" transform="matrix(1,0,0,-1,604,411)"/>
  <path d="M0,0 h310 v70 h-240 v70 h240 v210 h-70 v-140 h-50 v140 h-70 v-140 h-50 v140 h-70 v-350 Z" fill="#000000" transform="matrix(1,0,0,-1,724,411)"/>
  <path d="M0,0 h70 v189 h140 v161 h-70 v-91 h-70 v91 h-70 v-350 Z" fill="#000000" transform="matrix(1,0,0,-1,1074,411)"/>
  <path d="M0,0 h70 v350 h-70 v-350 Z" fill="#000000" transform="matrix(1,0,0,-1,1324,411)"/>
  <path d="M0,210 v-70 h70 v70 h-70 Z" fill="#000000" transform="matrix(1,0,0,-1,1434,411)"/>
  <path d="M17,0 l47,79 l-17,10 l-47,-79 l17,-10 Z" fill="#000000" transform="matrix(1,0,0,-1,1607,206)"/>
  <path d="M-130,-250 h242 q17,0 27.5,10.5 q10.5,10.5 10.5,29.5 v210 h40 v70 h-50 l-70,70 l-40,-70 l40,-40 v-210 h-100 q-15,0 -27.5,4.5 q-12.5,4.5 -20.5,15.5 l-52,-90 Z" fill="#000000" transform="matrix(1,0,0,-1,1544,411)"/>
  <path d="M-20,0 h260 v70 h-41 q1,9 1,20 q0,38 -29.5,64 q-29.5,26 -70.5,26 q-41,0 -70.5,-26 q-29.5,-26 -29.5,-64 q0,-11 2,-20 h-22 v-70 Z M100,70 q-8,0 -14,6 q-6,6 -6,14 q0,8 6,14 q6,6 14,6 q8,0 14,-6 q6,-6 6,-14 q0,-8 -6,-14 q-6,-6 -14,-6 Z" fill="#000000" transform="matrix(1,0,0,-1,1714,411)"/>
  <path d="M80,110 v450 l-80,-20 v-470 h-20 v-70 h140 v70 q-16,0 -28,12 q-12,12 -12,28 Z" fill="#000000" transform="matrix(1,0,0,-1,1954,411)"/>
  <path d="M-20,0 h539 q5,0 13,2.5 q8,2.5 8,18.5 q0,52 -11.5,83.5 q-11.5,31.5 -29,48 q-17.5,16.5 -37,22 q-19.5,5.5 -36.5,5.5 h-370 l27,70 h-3 l-80,-140 h416 q17,0 28.5,-11.5 q11.5,-11.5 11.5,-28.5 h-476 v-70 Z" fill="#000000" transform="matrix(1,0,0,-1,2074,411)"/>
  <path d="" fill="#000000" transform="matrix(1,0,0,-1,2654,411)"/>
  <path d="M17,0 l47,79 l-17,10 l-47,-79 l17,-10 Z M63,0 l47,79 l-17,10 l-47,-79 l17,-10 Z" fill="#000000" transform="matrix(1,0,0,-1,2968,635)"/>
  <path d="M131,-110 h560 l41,70 h-573 q-24,0 -42,5 q-18,5 -35,21 l-31,31 q-8,9 -8.5,23.5 q-0.5,14.5 3.5,23.5 q2,5 6,6 q2,0 5,-3 l52,-52 q15,-15 31,-15 h67 v70 h-31 q-7,0 -11.5,3.5 q-4.5,3.5 -6.5,5.5 l-64,64 q-15,15 -29,9 q-14,-6 -25.5,-25 q-11.5,-19 -20.5,-44.5 q-9,-25.5 -14,-49 q-5,-23.5 -5,-38.5 q0,-42 17,-64.5 q17,-22.5 47,-31 q30,-8.5 67,-9.5 Z" fill="#000000" transform="matrix(1,0,0,-1,2654,411)"/>
  <path d="M-20,0 h690 v70 h-43 q-7,48 -26.5,71.5 q-19.5,23.5 -42.5,31 q-23,7.5 -42,7.5 h-436 v380 l-80,-20 v-470 h-20 v-70 Z M80,70 v40 h426 q17,0 28.5,-11.5 q11.5,-11.5 11.5,-28.5 h-466 Z" fill="#000000" transform="matrix(1,0,0,-1,2861,411)"/>
  <path d="M-20,0 h339 l41,70 h-137 q-29,0 -59,19.5 q-30,19.5 -60,51.5 q-30,32 -61,69 l-43,-70 q14,-21 32.5,-40.5 q18.5,-19.5 29.5,-29.5 h-82 v-70 Z" fill="#000000" transform="matrix(1,0,0,-1,3511,411)"/>
  <path d="" fill="#000000" transform="matrix(1,0,0,-1,3911,411)"/>
  <path d="M17,0 l47,79 l-17,10 l-47,-79 l17,-10 Z" fill="#000000" transform="matrix(1,0,0,-1,4034,86)"/>
  <path d="M0,0 h339 q5,0 13,2.5 q8,2.5 8,18.5 q0,70 -23.5,111.5 q-23.5,41.5 -71,68 q-47.5,26.5 -121.5,49.5 l-80,-140 h172 q17,0 28.5,-11.5 q11.5,-11.5 11.5,-28.5 h-236 l-40,-70 Z" fill="#000000" transform="matrix(1,0,0,-1,3871,411)"/>
  <path d="M-50,-110 h256 q22,0 29.5,32 q7.5,32 7.5,78 h37 v70 h-44 q-9,44 -33,77 q-24,33 -72,33 q-42,0 -71.5,-26 q-29.5,-26 -29.5,-63.5 q0,-37.5 29.5,-64 q29.5,-26.5 70.5,-26.5 h31 q3,-21 -1,-40 h-110 q-33,0 -48,20 l-52,-90 Z M130,70 q-8,0 -14,6 q-6,6 -6,14 q0,8 6,14 q6,6 14,6 q8,0 14,-6 q6,-6 6,-14 q0,-8 -6,-14 q-6,-6 -14,-6 Z" fill="#000000" transform="matrix(1,0,0,-1,4271,411)"/>
  <path d="M100,-110 q100,0 100,90 v235 q-15,-26 -42.5,-30.5 q-27.5,-4.5 -57.5,-4.5 q-41,0 -70.5,-26 q-29.5,-26 -29.5,-64 q0,-10 2,-20 h-52 v-70 h52 q-1,-4 -1.5,-9.5 q-0.5,-5.5 -0.5,-10.5 q0,-45 29.5,-67.5 q29.5,-22.5 70.5,-22.5 Z M100,-40 q-8,0 -14,6 q-6,6 -6,14 q0,9 6,14.5 q6,5.5 14,5.5 q8,0 14,-5.5 q6,-5.5 6,-14.5 q0,-8 -6,-14 q-6,-6 -14,-6 Z M100,70 q-8,0 -14,6 q-6,6 -6,14 q0,8 6,14 q6,6 14,6 q8,0 14,-6 q6,-6 6,-14 q0,-8 -6,-14 q-6,-6 -14,-6 Z" fill="#000000" transform="matrix(1,0,0,-1,4551,411)"/>
  <path d="" fill="#000000" transform="matrix(1,0,0,-1,4791,411)"/>
  <path d="M0,0 h600 v70 h-43 q-7,48 -26.5,71.5 q-19.5,23.5 -42.5,31 q-23,7.5 -42,7.5 h-326 l27,70 h-3 l-80,-140 h372 q17,0 28.5,-11.5 q11.5,-11.5 11.5,-28.5 h-435 l-41,-70 Z" fill="#000000" transform="matrix(1,0,0,-1,4791,411)"/>
  <path d="M17,0 l47,79 l-17,10 l-47,-79 l17,-10 Z" fill="#000000" transform="matrix(1,0,0,-1,5434,535)"/>
  <path d="M-20,0 h339 l41,70 h-137 q-29,0 -59,19.5 q-30,19.5 -60,51.5 q-30,32 -61,69 l-43,-70 q14,-21 32.5,-40.5 q18.5,-19.5 29.5,-29.5 h-82 v-70 Z" fill="#000000" transform="matrix(1,0,0,-1,5371,411)"/>
  <path d="M17,0 l47,79 l-17,10 l-47,-79 l17,-10 Z" fill="#000000" transform="matrix(1,0,0,-1,5531,533)"/>
  <path d="M-20,0 q43,0 71.5,20 q28.5,20 28.5,50 v90 l-80,-20 v-70 q0,-14 -2.5,-29.5 q-2.5,-15.5 -17.5,-15.5 v-25 Z" fill="#000000" transform="matrix(1,0,0,-1,5478,299)"/>
  <path d="M0.147,0 h107.6334 l17.3602,28.9337 h-52.6594 q-6.3654,0 -10.1268,4.6294 q-3.7614,4.6294 -3.7614,10.4161 q0,6.3654 5.4974,12.1522 q5.4974,5.7867 16.4922,5.7867 q9.2588,0 19.6749,-4.0507 q-4.0507,13.8882 -13.8882,21.4109 q-9.8375,7.5228 -20.8323,7.5228 q-15.6242,0 -25.1723,-8.9695 q-9.5481,-8.9695 -12.7308,-21.9896 q-3.1827,-13.0202 0.2893,-26.3297 q0,0 0,-0.5787 h-10.9948 l-16.7816,-28.9337 Z" fill="#000000" transform="matrix(1,0,0,-1,5882,-63)"/>
  <path d="M158,0 q45,0 89,18 q44,18 73,52 q-21,-9 -52,-15.5 q-31,-6.5 -63,-6.5 q-32,0 -60.5,8.5 q-28.5,8.5 -46.5,28.5 q-18,20 -18,55 v420 l-80,-20 v-400 q0,-47 22.5,-78.5 q22.5,-31.5 58.5,-46.5 q36,-15 77,-15 Z" fill="#000000" transform="matrix(1,0,0,-1,5768,411)"/>
<style>
@media (prefers-color-scheme: dark) {
path[fill="#000000"] {
 fill: #FFFFFF;
 }
}
</style></svg>
