<?xml version='1.0' encoding='ASCII'?>
<svg xmlns="http://www.w3.org/2000/svg" width="6338" height="1011" preserveAspectRatio="xMinYMin slice" viewBox="-100 -250 6338 1011" version="1.1">
  <path d="M64,155 q3,36 3.5,68 q0.5,32 -5.5,66.5 q-6,34.5 -20.5,77.5 q-14.5,43 -41.5,102 l45,91 q25,-66 42,-119 q17,-53 17,-110 q0,-38 -9.5,-80.5 q-9.5,-42.5 -30.5,-95.5 Z M50,0 q-16,0 -28,12 q-12,12 -12,28 q0,17 12,28.5 q12,11.5 28,11.5 q17,0 28.5,-11.5 q11.5,-11.5 11.5,-28.5 q0,-16 -11.5,-28 q-11.5,-12 -28.5,-12 Z" fill="#000000" transform="matrix(1,0,0,-1,-50,411)"/>
  <path d="M230,531 v-78 q-32,20 -60,28.5 q-28,8.5 -54,8.5 q-16,0 -36,-4.5 q-20,-4.5 -34,-14.5 q-14,-10 -14,-27 q0,-17 16.5,-35.5 q16.5,-18.5 46.5,-32.5 q47,-23 72.5,-53 q25.5,-30 25.5,-71 q0,-40 -30,-96 q5,42 -3,68.5 q-8,26.5 -30.5,47 q-22.5,20.5 -61.5,40.5 q-38,21 -53,51.5 q-15,30.5 -15,60.5 q0,38 18.5,69 q18.5,31 50,49 q31.5,18 69.5,18 q48,0 92,-29 Z M153,0 q-16,0 -28,12 q-12,12 -12,28 q0,17 12,28.5 q12,11.5 28,11.5 q17,0 28.5,-11.5 q11.5,-11.5 11.5,-28.5 q0,-16 -11.5,-28 q-11.5,-12 -28.5,-12 Z" fill="#000000" transform="matrix(1,0,0,-1,94,411)"/>
  <path d="M40,0 q-16,0 -28,12 q-12,12 -12,28 q0,17 12,28.5 q12,11.5 28,11.5 q17,0 28.5,-11.5 q11.5,-11.5 11.5,-28.5 q0,-16 -11.5,-28 q-11.5,-12 -28.5,-12 Z M40,180 q-16,0 -28,12 q-12,12 -12,28 q0,17 12,28.5 q12,11.5 28,11.5 q17,0 28.5,-11.5 q11.5,-11.5 11.5,-28.5 q0,-16 -11.5,-28 q-11.5,-12 -28.5,-12 Z" fill="#000000" transform="matrix(1,0,0,-1,364,411)"/>
  <path d="M39,-82 q-12,0 -20.5,8.5 q-8.5,8.5 -8.5,20.5 q0,12 8.5,20.5 q8.5,8.5 20.5,8.5 q12,0 20.5,-8.5 q8.5,-8.5 8.5,-20.5 q0,-12 -8.5,-20.5 q-8.5,-8.5 -20.5,-8.5 Z M61,185 q-14,-20 -14,-45.5 q0,-25.5 10,-47.5 q10,-22 23,-34 l-43,-58 q-19,26 -28,49 q-9,23 -9,44 q0,29 16.5,52.5 q16.5,23.5 44.5,39.5 Z" fill="#000000" transform="matrix(1,0,0,-1,484,411)"/>
  <path d="M61,185 q-14,-20 -14,-45.5 q0,-25.5 10,-47.5 q10,-22 23,-34 l-43,-58 q-19,26 -28,49 q-9,23 -9,44 q0,29 16.5,52.5 q16.5,23.5 44.5,39.5 Z" fill="#000000" transform="matrix(1,0,0,-1,604,411)"/>
  <path d="M0,0 v350 h70 v-140 h50 v140 h70 v-140 h50 v140 h70 v-210 h-240 v-70 h240 v-70 h-310 Z" fill="#000000" transform="matrix(1,0,0,-1,724,411)"/>
  <path d="M0,0 v350 h70 v-91 h70 v91 h70 v-161 h-140 v-189 h-70 Z" fill="#000000" transform="matrix(1,0,0,-1,1074,411)"/>
  <path d="M0,0 v350 h70 v-350 h-70 Z" fill="#000000" transform="matrix(1,0,0,-1,1324,411)"/>
  <path d="M0,210 h70 v-70 h-70 v70 Z" fill="#000000" transform="matrix(1,0,0,-1,1434,411)"/>
  <path d="M17,0 l-17,10 l47,79 l17,-10 l-47,-79 Z" fill="#000000" transform="matrix(1,0,0,-1,1607,206)"/>
  <path d="M-130,-250 l52,90 q8,-11 20.5,-15.5 q12.5,-4.5 27.5,-4.5 h100 v210 l-40,40 l40,70 l70,-70 h50 v-70 h-40 v-210 q0,-19 -10.5,-29.5 q-10.5,-10.5 -27.5,-10.5 h-242 Z" fill="#000000" transform="matrix(1,0,0,-1,1544,411)"/>
  <path d="M-20,0 v70 h22 q-2,9 -2,20 q0,25 13.5,45.5 q13.5,20.5 36.5,32.5 q23,12 50,12 q28,0 50.5,-12 q22.5,-12 36,-32.5 q13.5,-20.5 13.5,-45.5 q0,-11 -1,-20 h41 v-70 h-260 Z M100,70 q8,0 14,6 q6,6 6,14 q0,8 -6,14 q-6,6 -14,6 q-8,0 -14,-6 q-6,-6 -6,-14 q0,-8 6,-14 q6,-6 14,-6 Z" fill="#000000" transform="matrix(1,0,0,-1,1714,411)"/>
  <path d="M80,110 q0,-16 12,-28 q12,-12 28,-12 v-70 h-140 v70 h20 v470 l80,20 v-450 Z" fill="#000000" transform="matrix(1,0,0,-1,1954,411)"/>
  <path d="M-20,0 v70 h476 q0,17 -11.5,28.5 q-11.5,11.5 -28.5,11.5 h-416 l80,140 h3 l-27,-70 h370 q17,0 36.5,-5.5 q19.5,-5.5 37,-22 q17.5,-16.5 29,-48 q11.5,-31.5 11.5,-83.5 q0,-16 -8,-18.5 q-8,-2.5 -13,-2.5 h-539 Z" fill="#000000" transform="matrix(1,0,0,-1,2074,411)"/>
  <path d="" fill="#000000" transform="matrix(1,0,0,-1,2654,411)"/>
  <path d="M17,0 l-17,10 l47,79 l17,-10 l-47,-79 Z M63,0 l-17,10 l47,79 l17,-10 l-47,-79 Z" fill="#000000" transform="matrix(1,0,0,-1,2968,635)"/>
  <path d="M131,-110 q-37,1 -67,9.5 q-30,8.5 -47,31 q-17,22.5 -17,64.5 q0,15 5,38.5 q5,23.5 14,49 q9,25.5 20.5,44.5 q11.5,19 25.5,25 q14,6 29,-9 l64,-64 q2,-2 6.5,-5.5 q4.5,-3.5 11.5,-3.5 h31 v-70 h-67 q-9,0 -16.5,4 q-7.5,4 -14.5,11 l-52,52 q-6,7 -11,-3 q-5,-10 -4,-24 q1,-14 9,-23 l31,-31 q17,-16 35,-21 q18,-5 42,-5 h573 l-41,-70 h-560 Z" fill="#000000" transform="matrix(1,0,0,-1,2654,411)"/>
  <path d="M-20,0 v70 h20 v470 l80,20 v-380 h436 q19,0 42,-7.5 q23,-7.5 42.5,-31 q19.5,-23.5 26.5,-71.5 h43 v-70 h-690 Z M506,110 h-426 v-40 h466 q0,17 -11.5,28.5 q-11.5,11.5 -28.5,11.5 Z" fill="#000000" transform="matrix(1,0,0,-1,2861,411)"/>
  <path d="M-20,0 v70 h82 q-11,10 -29.5,29.5 q-18.5,19.5 -32.5,40.5 l43,70 q31,-37 61,-69 q30,-32 60,-51.5 q30,-19.5 59,-19.5 h137 l-41,-70 h-339 Z" fill="#000000" transform="matrix(1,0,0,-1,3511,411)"/>
  <path d="" fill="#000000" transform="matrix(1,0,0,-1,3911,411)"/>
  <path d="M17,0 l-17,10 l47,79 l17,-10 l-47,-79 Z" fill="#000000" transform="matrix(1,0,0,-1,4034,86)"/>
  <path d="M0,0 l40,70 h236 q0,17 -11.5,28.5 q-11.5,11.5 -28.5,11.5 h-172 l80,140 q55,-18 95.5,-36.5 q40.5,-18.5 67.5,-43.5 q27,-25 40,-61 q13,-36 13,-88 q0,-16 -8,-18.5 q-8,-2.5 -13,-2.5 h-339 Z" fill="#000000" transform="matrix(1,0,0,-1,3871,411)"/>
  <path d="M-50,-110 l52,90 q15,-20 48,-20 h110 q2,10 2.5,20.5 q0.5,10.5 -1.5,19.5 h-31 q-27,0 -50,12 q-23,12 -36.5,32.5 q-13.5,20.5 -13.5,45.5 q0,25 13.5,45.5 q13.5,20.5 36.5,32.5 q23,12 51,12 q32,0 53,-15.5 q21,-15.5 33.5,-40.5 q12.5,-25 18.5,-54 h44 v-70 h-37 q0,-46 -7.5,-78 q-7.5,-32 -29.5,-32 h-256 Z M130,70 q8,0 14,6 q6,6 6,14 q0,8 -6,14 q-6,6 -14,6 q-8,0 -14,-6 q-6,-6 -6,-14 q0,-8 6,-14 q6,-6 14,-6 Z" fill="#000000" transform="matrix(1,0,0,-1,4271,411)"/>
  <path d="M100,-110 q-41,0 -70.5,22.5 q-29.5,22.5 -29.5,67.5 q0,5 0.5,10.5 q0.5,5.5 1.5,9.5 h-52 v70 h52 q-1,4 -1.5,9.5 q-0.5,5.5 -0.5,10.5 q0,25 13.5,45.5 q13.5,20.5 36.5,32.5 q23,12 50,12 q30,0 57.5,4.5 q27.5,4.5 42.5,30.5 v-235 q0,-90 -100,-90 Z M100,70 q8,0 14,6 q6,6 6,14 q0,8 -6,14 q-6,6 -14,6 q-8,0 -14,-6 q-6,-6 -6,-14 q0,-8 6,-14 q6,-6 14,-6 Z M100,-40 q8,0 14,6 q6,6 6,14 q0,9 -6,14.5 q-6,5.5 -14,5.5 q-8,0 -14,-5.5 q-6,-5.5 -6,-14.5 q0,-8 6,-14 q6,-6 14,-6 Z" fill="#000000" transform="matrix(1,0,0,-1,4551,411)"/>
  <path d="" fill="#000000" transform="matrix(1,0,0,-1,4791,411)"/>
  <path d="M0,0 l41,70 h435 q0,17 -11.5,28.5 q-11.5,11.5 -28.5,11.5 h-372 l80,140 h3 l-27,-70 h326 q19,0 42,-7.5 q23,-7.5 42.5,-31 q19.5,-23.5 26.5,-71.5 h43 v-70 h-600 Z" fill="#000000" transform="matrix(1,0,0,-1,4791,411)"/>
  <path d="M17,0 l-17,10 l47,79 l17,-10 l-47,-79 Z" fill="#000000" transform="matrix(1,0,0,-1,5434,535)"/>
  <path d="M-20,0 v70 h82 q-11,10 -29.5,29.5 q-18.5,19.5 -32.5,40.5 l43,70 q31,-37 61,-69 q30,-32 60,-51.5 q30,-19.5 59,-19.5 h137 l-41,-70 h-339 Z" fill="#000000" transform="matrix(1,0,0,-1,5371,411)"/>
  <path d="M17,0 l-17,10 l47,79 l17,-10 l-47,-79 Z" fill="#000000" transform="matrix(1,0,0,-1,5531,533)"/>
  <path d="M-20,0 v25 q15,0 17.5,15.5 q2.5,15.5 2.5,29.5 v70 l80,20 v-90 q0,-30 -28.5,-50 q-28.5,-20 -71.5,-20 Z" fill="#000000" transform="matrix(1,0,0,-1,5478,299)"/>
  <path d="M0,0 l17,29 h11 q-6,19 4,38.5 q10,19.5 34,19.5 q10,0 20,-7.5 q10,-7.5 14,-21.5 q-10,4 -19,4 q-12,0 -17,-6 q-5,-6 -5,-12 q0,-6 3.5,-10.5 q3.5,-4.5 9.5,-4.5 h53 l-17,-29 h-108 Z" fill="#000000" transform="matrix(1,0,0,-1,5882,-63)"/>
  <path d="M158,0 q-41,0 -77,15 q-36,15 -58.5,46.5 q-22.5,31.5 -22.5,78.5 v400 l80,20 v-420 q0,-35 18,-55 q18,-20 46.5,-28.5 q28.5,-8.5 60.5,-8.5 q32,0 63,6.5 q31,6.5 52,15.5 q-29,-34 -73,-52 q-44,-18 -89,-18 Z" fill="#000000" transform="matrix(1,0,0,-1,5768,411)"/>
<style>
@media (prefers-color-scheme: dark) {
path[fill="#000000"] {
 fill: #FFFFFF;
 }
}
</style></svg>
