<?xml version="1.0" encoding="UTF-8"?>
<svg width="480" height="480" version="1.1" viewBox="-60 0 480 480" xmlns="http://www.w3.org/2000/svg">
 <rect x="-60" width="480" height="480"/>
 <path d="m219.81 270.29h-44.143l76.168-83.958c12.118-12.983 18.176-31.16 18.176-54.529 0-43.277-38.949-77.899-86.554-77.899-47.605 0-86.554 34.622-86.554 77.899 0 51.932 38.949 77.899 86.554 77.899 9.521 0 18.176-0.86555 25.966-1.7311l-112.52 122.91h114.25c19.042 0 34.622 15.58 34.622 34.622h-169.65l-34.622 60.588h258.8c5.1932 0 18.176 0 18.176-18.176 0-120.31-60.588-137.62-98.672-137.62zm-36.353-121.18c-9.521 0-17.311-7.7899-17.311-17.311 0-9.521 7.7899-17.311 17.311-17.311s17.311 7.7899 17.311 17.311c0 9.521-7.7899 17.311-17.311 17.311z" fill="#fff" stroke-width=".92625"/>
</svg>
