<svg xmlns="http://www.w3.org/2000/svg" version="1.1" viewBox="0 0 100 100">
<g transform="translate(0,16)">
<path d="M 70.59375,20.502224 H 9.0996094 c -2.3,0 -4.0996094,1.8 -4.0996094,4 v 51 c 0,1.375 0.7022629,2.593753 1.7910156,3.314453 h 0.00195 c 0.652984,0.43185 1.4447728,0.685547 2.3066438,0.685547 H 70.853516 c 1.310645,0 2.768567,-0.570972 3.546875,-1.508933 l 19.5,-23.5 C 94.400391,53.993291 95,52.8929 95,51.5929 v -3.079021 c 0,-1.3 -0.599609,-2.400391 -1.099609,-2.900391 l -19.5,-23.5 C 73.237473,20.861763 72.005814,20.449297 70.59375,20.502224 Z M 13.300781,28.601833 H 67.599609 L 85.208984,49.951443 67.599609,71.303005 H 13.300781 Z"/>
<path d="m 31.943359,33.537109 c -1.05,0 -2.124609,0.375 -2.974609,1.125 -1.6,1.7 -1.6,4.201172 0,5.701172 3.182429,3.257012 6.454926,6.42023 9.740234,9.572266 -3.086377,3.361741 -6.546984,6.382914 -9.640625,9.726562 -1.6,1.5 -1.6,3.99961 0,5.59961 1.7,1.6 4.198829,1.6 5.798829,0 0.150475,0 5.937758,-5.851854 9.367187,-9.328125 3.429805,3.476648 9.214775,9.328125 9.365234,9.328125 1.6,1.6 4.100782,1.6 5.800782,0 1.6,-1.6 1.6,-4.09961 0,-5.59961 -3.218248,-3.237437 -6.447386,-6.464995 -9.642579,-9.726562 3.323368,-3.11332 6.522715,-6.352793 9.742188,-9.572266 1.6,-1.5 1.6,-4.001172 0,-5.701172 -1.7,-1.5 -4.300781,-1.5 -5.800781,0 l -9.464844,9.466797 -9.466797,-9.466797 c -0.75,-0.75 -1.774219,-1.125 -2.824219,-1.125 z"/>
</g>
</svg>
