<svg xmlns="http://www.w3.org/2000/svg" version="1.1" viewBox="0 0 100 100">
<path d="M47.2,78.8c1.5,1.6,4.2,1.6,5.7,0c0,0,12.1-12.1,12.5-12.5c1.5-1.5,1.5-4.1,0-5.8c-1.7-1.6-4.2-1.6-5.7,0  c-0.4,0.4-5.6,5.6-5.6,5.6V37.6c0-2.2-1.9-4.1-4-4.1c-2.2,0-4.1,1.9-4.1,4.1v28.6c0,0-5.4-5.5-5.6-5.6c-1.5-1.6-4-1.6-5.6,0  c-1.6,1.7-1.6,4.2,0,5.8C34.8,66.6,47.2,78.8,47.2,78.8L47.2,78.8z M84.4,25.6c0-0.1,0-0.1-19.5-19.5C64.4,5.6,63.3,5,62,5H18.5  c-2.2,0-4,1.8-4,4v81.9c0,2.3,1.8,4.1,4,4.1h63c2.2,0,4-1.8,4-4.1V28.5C85.5,27.2,84.9,26.2,84.4,25.6L84.4,25.6z M22.7,13.1H58  v15.3c0,2.2,1.9,4,4,4h15.4v54.3H22.7V13.1z"/></svg>
