<svg xmlns="http://www.w3.org/2000/svg" version="1.1" viewBox="0 0 48 48">
<path d="M 6 9 C 5 9 4 10 4 11 L 4 36 C 4 38 5 39 7 39 L 35 39 C 37 39 38 37 38 37 L 44 22 C 44.584012 20.539971 44 17 41 17 L 36 17 L 36 16 C 36 14 35 13 33 13 L 20 13 L 20 11 C 20 10 19 9 18 9 L 6 9 z M 15 21 L 38 21 C 39.3 21 39.300781 21.299219 39.300781 21.699219 C 39.300781 23.599219 35.2 33.199219 34.5 34.199219 C 34.2 34.699219 33.6 35.099609 33 35.099609 L 9 35 C 9 35 9.7 34.839453 10 34.439453 C 11.1 33.139453 13.9 23.400391 14 21.900391 C 14.1 21.300391 14.6 21 15 21 z "/>
</svg>
