<svg xmlns="http://www.w3.org/2000/svg" version="1.1" width="400" height="400">
  <path fill="#d22e1f" d="M 200,390.08 C 306.4448,390.08 390.08,306.4448 390.08,200 390.08,93.5552 306.4448,9.92 200,9.92 93.5552,9.92 9.92,93.5552 9.92,200 9.92,306.4448 93.5552,390.08 200,390.08 Z"/>
  <g transform="matrix(1,0,0,-1,0,623.37871)">
    <rect x="-414.74194" y="61.869717" height="23.374949" width="176.25975" transform="rotate(-90)"/>
    <rect x="212.30975" y="108.20303"  height="23.374954" width="97.98114"  transform="rotate(45)" />
    <rect x="108.28418" y="212.22861"  height="23.374954" width="97.98114"  transform="matrix(-0.70710678,0.70710678,0.70710678,0.70710678,0,0)"/>
  </g>
  <g transform="translate(0,-224)">
    <rect x="-414.74194" y="61.869717" height="23.374949" width="176.25975" transform="rotate(-90)"/>
    <rect x="212.30975"  y="108.20303" height="23.374954" width="97.98114"  transform="rotate(45)" />
    <rect x="108.28418"  y="212.22861" height="23.374954" width="97.98114"  transform="matrix(-0.70710678,0.70710678,0.70710678,0.70710678,0,0)"/>
  </g>
</svg>
