<svg xmlns="http://www.w3.org/2000/svg" height="480" width="480" viewBox="-60 0 480 480" version="1.1">
<path d="m 222.98519,270.41486 h -47.6575 l 82.23254,-90.64269 c 13.08245,-14.01691 19.62368,-33.64058 19.62368,-58.87101 0,-46.723031 -42.05073,-84.101466 -93.44607,-84.101466 -51.39532,0 -93.44606,37.378435 -93.44606,84.101466 0,56.06763 42.05074,84.10145 93.44606,84.10145 10.27907,0 19.62367,-0.93446 28.03383,-1.86891 L 90.291781,335.82711 H 213.64058 c 20.55814,0 37.37844,16.82029 37.37844,37.37842 H 67.864731 L 30.486296,438.61778 H 309.89003 c 5.60676,0 19.62367,0 19.62367,-19.62367 0,-129.89003 -65.41224,-148.57925 -106.52851,-148.57925 z M 183.73784,139.59037 c -10.27907,0 -18.68921,-8.41014 -18.68921,-18.68921 0,-10.27907 8.41014,-18.68921 18.68921,-18.68921 10.27907,0 18.68921,8.41014 18.68921,18.68921 0,10.27907 -8.41014,18.68921 -18.68921,18.68921 z"/>
</svg>
