<svg xmlns="http://www.w3.org/2000/svg" version="1.0" viewBox="0 0 48 48">
<path d="M 8 5 A 3.0003 3.0003 0 0 0 5 8 L 5 35 A 3.0003 3.0003 0 0 0 5.8789062 37.121094 L 9.8789062 41.121094 A 3.0003 3.0003 0 0 0 12 42 L 40 42 A 3.0003 3.0003 0 0 0 43 39 L 43 8 A 3.0003 3.0003 0 0 0 40 5 L 8 5 z M 10 9 L 38 9 L 38 22 L 10 22 L 10 9 z M 14 26 L 31 26 C 32.1 26 33 26.9 33 28 L 33 37 C 33 38.1 32.1 39 31 39 L 14 39 C 12.9 39 12 38.1 12 37 L 12 28 C 12 26.9 12.9 26 14 26 z M 15 28 L 15 37 L 21 37 L 21 28 L 15 28 z "/>
</svg>
